<?xml version="1.0" encoding="utf-8"?>
<svg version="1.1" id="Layer_1" xmlns="http://www.w3.org/2000/svg" x="0px"
     y="0px"
     viewBox="0 0 160.2 53.2" style="enable-background:new 0 0 160.2 53.2;" xml:space="preserve">
<style type="text/css">
        .st0{fill:#231F20;}
        .st1{fill:#F89822;}
</style>
    <g>
        <path class="st0" d="M90.6,36.1c-0.4,0.7-1.2,1.3-2.2,1.7c-1.1,0.4-2.2,0.7-3.3,0.7c-2.2,0-3.9-0.5-5.1-1.6
                c-1.2-1.1-1.9-2.6-1.9-4.6c0-2.3,0.9-4.1,2.6-5.4c1.7-1.3,4.2-2,7.4-2c0.6,0,1.2,0.1,1.9,0.3c0-2.4-1.5-3.6-4.5-3.6
                c-1.8,0-3.2,0.3-4.4,0.9l-1-3.6c1.6-0.8,3.5-1.2,5.8-1.2c3.1,0,5.3,0.7,6.7,2.1c1.4,1.4,2.1,4,2.1,7.9V32c0,1.6,0.1,2.9,0.6,3.8
                c1,1.6-0.4,3-1.9,2.9c-0.7-0.1-1.3-0.4-1.8-0.9C91.2,37.3,90.8,36.7,90.6,36.1z M90.2,28.7c-0.8-0.2-1.4-0.2-1.8-0.2
                c-3.7,0-5.6,1.2-5.6,3.6c0,1.8,1,2.7,3.1,2.7c2.8,0,4.2-1.4,4.2-4.2V28.7z"/>
        <path class="st0" d="M131.7,28c0-3.1,0.9-5.6,2.6-7.5c1.8-1.9,4.1-2.9,7-2.9c3,0,5.4,0.9,7.1,2.8c1.7,1.8,2.5,4.4,2.5,7.6
                c0,3.2-0.9,5.7-2.6,7.6c-1.7,1.9-4.1,2.8-7.1,2.8c-3,0-5.4-1-7.1-2.9C132.5,33.7,131.7,31.2,131.7,28z M136.6,28
                c0,4.4,1.6,6.7,4.8,6.7c1.5,0,2.6-0.6,3.5-1.7c0.9-1.2,1.3-2.8,1.3-4.9c0-4.4-1.6-6.6-4.7-6.6c-1.5,0-2.6,0.6-3.5,1.7
                C137,24.4,136.6,26,136.6,28z"/>
        <g>
                <path class="st0" d="M125.5,15.7c0.7,0,1.4-0.3,1.9-0.8c0.5-0.5,0.8-1.2,0.8-1.9s-0.3-1.4-0.8-1.9c-0.5-0.5-1.2-0.8-1.9-0.8
                        c-0.8,0-1.4,0.3-1.9,0.8c-0.5,0.5-0.8,1.2-0.8,1.9s0.3,1.4,0.8,1.9C124.1,15.5,124.7,15.7,125.5,15.7z"/>
            <path class="st0" d="M120.5,18.1c-0.5,0-0.9,0.2-1.2,0.6c-0.4,0.4-0.6,0.8-0.6,1.4c0,0.5,0.2,1,0.6,1.4c0.4,0.4,0.8,0.6,1.4,0.6
                        c0.1,0,0.1,0,0.2,0h2.3v16.2h4.7v-20L120.5,18.1L120.5,18.1z"/>
        </g>
        <path class="st0" d="M116.9,10.5c0-0.6-0.2-1.2-0.7-1.6c-0.5-0.5-1-0.7-1.6-0.7c-0.6,0-1.2,0.2-1.6,0.7c-0.5,0.5-0.7,1-0.7,1.6
                c0,0,0,0.1,0,0.1h0v8c-1.2-0.6-2.6-0.9-4.2-0.9c-2.8,0-5.1,1-6.9,3c-1.8,2-2.8,4.6-2.8,7.8c0,3.2,0.8,5.7,2.4,7.4
                c1.6,1.8,3.8,2.7,6.6,2.7c1,0,1.9-0.2,2.9-0.5c0.9-0.3,1.6-0.7,2-1.1v1.2h4.7V10.5C116.9,10.5,116.9,10.5,116.9,10.5z M112.2,33.3
                c-0.2,0.3-0.6,0.5-1.3,0.8c-0.7,0.3-1.2,0.4-1.7,0.4c-4,0-6-2.1-6-6.3c0-2.1,0.5-3.8,1.5-4.9c1-1.1,2.5-1.7,4.3-1.7
                c1.1,0,2.1,0.4,3.1,1.2V33.3z"/>
        <path class="st0" d="M76.5,35.5L76.5,35.5l-6.4-9.7c1.5-0.5,2.7-1.5,3.6-2.8c1-1.3,1.4-2.8,1.4-4.4c0-5.4-3.5-8.1-10.5-8.1
                c-1.1,0-2.6,0-4.4,0.1c-1.8,0.1-2.9,0.1-3.2,0.1v27.4h5.1V26.6c1.3,0.1,2.4,0.1,3.1,0.1l7.2,11.1c0.1,0.2,0.3,0.4,0.4,0.6
                c0.5,0.5,1,0.7,1.7,0.7c0.7,0,1.2-0.2,1.7-0.7c0.5-0.5,0.7-1,0.7-1.7C76.9,36.3,76.7,35.8,76.5,35.5z M68.7,21.8
                c-0.9,0.6-2.4,0.9-4.5,0.9c-0.5,0-1.2,0-2.1-0.1v-7.6c0.6-0.1,1.1-0.1,1.7-0.1c2.2,0,3.8,0.3,4.8,0.8c1,0.5,1.5,1.5,1.5,2.8
                C70.1,20.1,69.6,21.2,68.7,21.8z"/>
        <g>
                <path class="st1" d="M37.8,24.4c0-7.1-5.5-13.1-12.6-13.7c-0.1,0-0.1,0-0.2,0h-0.3v5c0,0,0.1,0,0.1,0c4.4,0.4,7.9,4.2,7.9,8.7
                        c0,4.8-3.9,8.8-8.7,8.8h-2.7V12.7c0-1.4-1.1-2.5-2.5-2.5c-1.4,0-2.5,1.1-2.5,2.5v8.7H5v-8.7c0-1.4-1.1-2.5-2.5-2.5
                        c-1.4,0-2.5,1.1-2.5,2.5v23.1c0,1.4,1.1,2.5,2.5,2.5c1.4,0,2.5-1.1,2.5-2.5v-9.4h11.3v9.2c0,1.4,1.1,2.5,2.5,2.5
                        c0.2,0,0.3,0,0.4,0H24C31.6,38.1,37.8,32,37.8,24.4z"/>
            <path class="st1" d="M25.2,0c-1.4-0.1-2.6,1-2.6,2.4c-0.1,1.4,1,2.6,2.4,2.6c10.3,0.5,18.3,9,18.3,19.3c0,10.7-8.7,19.4-19.4,19.4
                        h-0.6v5h0.6c13.4,0,24.4-10.9,24.4-24.4C48.2,11.4,38.1,0.7,25.2,0z"/>
        </g>
        <path class="st0" d="M153.9,18.5c0-1.6,1.2-2.9,2.8-2.9c1.6,0,2.8,1.2,2.8,2.9c0,1.7-1.2,2.9-2.8,2.9
                C155.1,21.3,153.9,20.1,153.9,18.5z M156.7,21.9c1.9,0,3.5-1.5,3.5-3.5c0-2-1.6-3.4-3.5-3.4c-1.9,0-3.5,1.5-3.5,3.4
                C153.2,20.5,154.8,21.9,156.7,21.9z M156,18.7h0.7l1.1,1.7h0.7l-1.1-1.8c0.6-0.1,1-0.4,1-1.1c0-0.8-0.5-1.1-1.4-1.1h-1.5v4h0.6
                V18.7z M156,18.2V17h0.8c0.4,0,0.9,0.1,0.9,0.6c0,0.6-0.5,0.7-1,0.7H156z"/>
</g>
</svg>