<?xml version="1.0" encoding="utf-8"?>
<svg width="256px" height="256px" fill="none" xmlns="http://www.w3.org/2000/svg" viewBox="0 0 20.7 24.1">
    <g id="SVGRepo_bgCarrier" stroke-width="0" transform="matrix(1, 0, 0, 1, -0.0135, 11.999973)"/>
    <g id="SVGRepo_tracerCarrier" stroke-linecap="round" stroke-linejoin="round"
       transform="matrix(1, 0, 0, 1, -0.0135, 11.999973)"/>
    <g id="SVGRepo_iconCarrier" transform="matrix(1, 0, 0, 1, -0.0135, 0.050027)"
       style="transform-origin: 0.0135px -0.050027px 0px;">
        <path d="M 13.11 0.022 C 11.609 -0.153 10.184 0.728 9.67 2.148 C 9.554 2.468 9.513 2.815 9.494 3.178 C 9.48 3.451 9.476 3.778 9.475 4.162 L 9.475 4.701 C 9.475 4.706 9.475 4.712 9.475 4.718 L 9.475 14.272 C 8.469 13.327 7.115 12.749 5.626 12.749 C 2.519 12.749 0 15.267 0 18.374 C 0 21.482 2.519 24 5.626 24 C 8.733 24 11.252 21.482 11.252 18.374 L 11.252 7.964 C 11.376 8.031 11.51 8.098 11.658 8.171 L 14.864 9.775 C 15.36 10.022 15.763 10.224 16.093 10.368 C 16.426 10.513 16.754 10.632 17.092 10.671 C 18.593 10.846 20.017 9.966 20.532 8.545 C 20.648 8.225 20.689 7.879 20.708 7.516 C 20.727 7.156 20.727 6.705 20.727 6.151 L 20.727 6.053 C 20.727 5.642 20.727 5.319 20.669 5.014 C 20.518 4.228 20.084 3.525 19.448 3.039 C 19.201 2.85 18.913 2.706 18.544 2.522 L 15.338 0.919 C 14.842 0.671 14.439 0.469 14.109 0.325 C 13.776 0.18 13.448 0.062 13.11 0.022 Z"
              fill="#000000"/>
    </g>
</svg>