<?xml version="1.0" encoding="utf-8"?>
<svg width="800px" height="800px" viewBox="0 0 22.6 24" fill="none" xmlns="http://www.w3.org/2000/svg">
    <path fill-rule="evenodd" clip-rule="evenodd" d="M 10.437 0 C 8.753 0 7.388 1.365 7.388 3.049 C 7.388 3.293 7.22 3.619 6.817 3.837 C 6.694 3.905 6.572 3.975 6.451 4.047 C 6.05 4.289 5.674 4.273 5.452 4.147 C 3.984 3.307 2.112 3.808 1.261 5.27 L 0.415 6.721 C -0.438 8.186 0.066 10.065 1.537 10.907 C 1.75 11.029 1.951 11.34 1.941 11.802 C 1.94 11.868 1.939 11.934 1.939 12 C 1.939 12.066 1.94 12.132 1.941 12.198 C 1.951 12.66 1.75 12.971 1.537 13.093 C 0.066 13.935 -0.438 15.814 0.416 17.279 L 1.261 18.73 C 2.113 20.192 3.984 20.693 5.452 19.853 C 5.674 19.727 6.05 19.711 6.451 19.953 C 6.572 20.025 6.694 20.095 6.817 20.163 C 7.22 20.381 7.388 20.707 7.388 20.951 C 7.388 22.635 8.753 24 10.437 24 L 12.188 24 C 13.872 24 15.237 22.635 15.237 20.951 C 15.237 20.707 15.405 20.381 15.807 20.163 C 15.931 20.095 16.053 20.025 16.174 19.953 C 16.575 19.711 16.951 19.727 17.172 19.853 C 18.641 20.693 20.512 20.192 21.364 18.73 L 22.209 17.279 C 23.063 15.814 22.559 13.935 21.088 13.093 C 20.874 12.971 20.674 12.66 20.684 12.198 C 20.685 12.132 20.686 12.066 20.686 12 C 20.686 11.934 20.685 11.868 20.684 11.802 C 20.674 11.34 20.874 11.029 21.088 10.907 C 22.559 10.065 23.063 8.186 22.209 6.721 L 21.364 5.27 C 20.512 3.808 18.641 3.307 17.172 4.147 C 16.951 4.273 16.575 4.289 16.174 4.047 C 16.053 3.975 15.931 3.905 15.807 3.837 C 15.405 3.619 15.237 3.293 15.237 3.049 C 15.237 1.365 13.872 0 12.188 0 L 10.437 0 Z M 11.312 8.4 C 9.324 8.4 7.712 10.012 7.712 12 C 7.712 13.988 9.324 15.6 11.312 15.6 C 13.301 15.6 14.912 13.988 14.912 12 C 14.912 10.012 13.301 8.4 11.312 8.4 Z" fill="#000000"/>
</svg>