<?xml version="1.0" encoding="utf-8"?>
<svg viewBox="0 0 256 256" width="800" height="800" xmlns="http://www.w3.org/2000/svg">
  <g style="stroke: none; stroke-width: 0; stroke-dasharray: none; stroke-linecap: butt; stroke-linejoin: miter; stroke-miterlimit: 10; fill: none; fill-rule: nonzero; opacity: 1;" transform="matrix(2.809999942779541, 0, 0, 2.809999942779541, 1.4065934419631958, 1.4065934419631922)">
    <path d="M 45 85.465 L 7.098 47.563 C 2.521 42.986 0 36.9 0 30.426 C 0 23.953 2.521 17.867 7.099 13.29 C 11.676 8.713 17.762 6.192 24.235 6.192 C 30.708 6.192 36.794 8.713 41.372 13.29 L 45 16.919 L 48.63 13.29 C 53.206 8.713 59.292 6.192 65.766 6.192 C 68.594 6.192 71.348 6.673 73.935 7.5969999999999995 C 77.269 8.786999999999999 80.325 10.713 82.902 13.291 C 82.902 13.291 82.902 13.291 82.902 13.291 C 87.479 17.867 90 23.953 90 30.426 C 90 36.9 87.479 42.986 82.901 47.562 L 45 85.465 Z" style="stroke: none; stroke-width: 1; stroke-dasharray: none; stroke-linecap: butt; stroke-linejoin: miter; stroke-miterlimit: 10; fill-rule: evenodd; opacity: 1; paint-order: fill; fill: rgb(217, 0, 0);" stroke-linecap="round" transform=" matrix(1 0 0 1 0 0) "/>
    <path d="M 24.234 14.192 C 19.898 14.192 15.821 15.88 12.755 18.947 C 9.689 22.013 8 26.09 8 30.426 C 8 34.762 9.689 38.84 12.755 41.905 L 45 74.15 L 77.244 41.906 C 80.312 38.84 82 34.763 82 30.426 C 82 26.09 80.312 22.013 77.245 18.947 C 74.179 15.881 70.101 14.192 65.766 14.192 C 61.431 14.192 57.353 15.88 54.287 18.947 L 45 28.233 L 35.714 18.947 C 32.647 15.881 28.571 14.192 24.234 14.192 Z" style="stroke: none; stroke-width: 1; stroke-dasharray: none; stroke-linecap: butt; stroke-linejoin: miter; stroke-miterlimit: 10; fill-rule: evenodd; opacity: 1; paint-order: fill; fill: rgb(217, 0, 0);" stroke-linecap="round" transform=" matrix(1 0 0 1 0 0) "/>
  </g>
</svg>